M48
;Layer_Color=6321
;FILE_FORMAT=2:4
INCH
;TYPE=PLATED
T1F00S00C0.0250
T2F00S00C0.0280
T3F00S00C0.0380
T4F00S00C0.0413
T5F00S00C0.0950
T6F00S00C0.1400
%
T01
X034900Y022650
X034922Y024027
X037922
X037900Y022650
T02
X032550Y021300
X032250Y025300
X031450Y025200
X038750Y021800
X030400
X029557Y021750
X030396Y023230
X030820Y023660
X029100Y023950
X028348Y023360
X028950Y025450
X025500Y023900
X025850Y022250
X024850Y021920
X023800Y022550
X023250Y023500
X027041Y020809
T03
X034310Y017750
X035400
X036490
X037580
X037040Y018850
X038130
X035950
X034860
X033770
X025480
X024390
X023300
X022210
X021120
X021660Y017750
X022750
X023840
X024930
T04
X020000Y024850
X021000
X022000
X023000
X024000
X025000
X026000
X027000
T05
X041000Y024700
X018000
T06
X040880Y018300
X031020
X028230
X018370
M30
