G04 Layer_Color=13813960*
%FSAX24Y24*%
%MOIN*%
G70*
G01*
G75*
%ADD20C,0.0100*%
%ADD31C,0.0079*%
D20*
X035422Y023577D02*
X037422D01*
Y024477D01*
X035422Y023577D02*
Y024477D01*
X037422D01*
X035400Y022200D02*
X037400D01*
Y023100D01*
X035400Y022200D02*
Y023100D01*
X037400D01*
X038270Y024980D02*
Y025430D01*
X038045D01*
X037970Y025355D01*
Y025205D01*
X038045Y025130D01*
X038270D01*
X038120D02*
X037970Y024980D01*
X037520Y025430D02*
X037670Y025355D01*
X037820Y025205D01*
Y025055D01*
X037745Y024980D01*
X037595D01*
X037520Y025055D01*
Y025130D01*
X037595Y025205D01*
X037820D01*
X028704Y020729D02*
X028804Y020829D01*
X029004D01*
X029104Y020729D01*
Y020329D01*
X029004Y020229D01*
X028804D01*
X028704Y020329D01*
X028105Y020829D02*
Y020229D01*
X028404D01*
X028504Y020329D01*
Y020529D01*
X028404Y020629D01*
X028105D01*
X038250Y023600D02*
Y024050D01*
X038025D01*
X037950Y023975D01*
Y023825D01*
X038025Y023750D01*
X038250D01*
X038100D02*
X037950Y023600D01*
X037800Y024050D02*
X037500D01*
Y023975D01*
X037800Y023675D01*
Y023600D01*
X030540Y026255D02*
X030615Y026330D01*
X030765D01*
X030840Y026255D01*
Y025955D01*
X030765Y025880D01*
X030615D01*
X030540Y025955D01*
X030165Y025880D02*
Y026330D01*
X030390Y026105D01*
X030090D01*
X029590Y023705D02*
X029665Y023780D01*
X029815D01*
X029890Y023705D01*
Y023405D01*
X029815Y023330D01*
X029665D01*
X029590Y023405D01*
X029440Y023705D02*
X029365Y023780D01*
X029215D01*
X029140Y023705D01*
Y023630D01*
X029215Y023555D01*
X029290D01*
X029215D01*
X029140Y023480D01*
Y023405D01*
X029215Y023330D01*
X029365D01*
X029440Y023405D01*
X017100Y016750D02*
Y026050D01*
Y016750D02*
X042150D01*
Y026050D01*
X017100D02*
X042150D01*
D31*
X027902Y021006D02*
Y021794D01*
Y021006D02*
X029398D01*
Y021794D01*
X027902D02*
X029398D01*
X030898Y024756D02*
Y025544D01*
X029402D02*
X030898D01*
X029402Y024756D02*
Y025544D01*
Y024756D02*
X030898D01*
X029948Y022206D02*
Y022994D01*
X028452D02*
X029948D01*
X028452Y022206D02*
Y022994D01*
Y022206D02*
X029948D01*
M02*
