G04 Layer_Color=15132400*
%FSAX24Y24*%
%MOIN*%
G70*
G01*
G75*
%ADD20C,0.0100*%
%ADD29C,0.0098*%
%ADD30C,0.0236*%
%ADD31C,0.0079*%
%ADD32C,0.0050*%
%ADD33C,0.0060*%
D20*
X019550Y025690D02*
Y026140D01*
X019775D01*
X019850Y026065D01*
Y025915D01*
X019775Y025840D01*
X019550D01*
X020000Y025690D02*
X020150D01*
X020075D01*
Y026140D01*
X020000Y026065D01*
X033620Y024800D02*
Y025250D01*
X033845D01*
X033920Y025175D01*
Y025025D01*
X033845Y024950D01*
X033620D01*
X033770D02*
X033920Y024800D01*
X034070Y025250D02*
X034370D01*
Y025175D01*
X034070Y024875D01*
Y024800D01*
X034520Y024725D02*
X034820D01*
X035269Y024800D02*
X034970D01*
X035269Y025100D01*
Y025175D01*
X035194Y025250D01*
X035045D01*
X034970Y025175D01*
X027810Y025880D02*
X027960D01*
X027885D01*
Y025430D01*
X027810D01*
X027960D01*
X028185D02*
X028335D01*
X028260D01*
Y025880D01*
X028185Y025805D01*
X024114Y022123D02*
X024039Y022198D01*
X023889D01*
X023814Y022123D01*
Y021823D01*
X023889Y021748D01*
X024039D01*
X024114Y021823D01*
X024263Y022198D02*
X024563D01*
Y022123D01*
X024263Y021823D01*
Y021748D01*
X021170Y022315D02*
X021095Y022390D01*
X020945D01*
X020870Y022315D01*
Y022015D01*
X020945Y021940D01*
X021095D01*
X021170Y022015D01*
X021320Y021940D02*
X021470D01*
X021395D01*
Y022390D01*
X021320Y022315D01*
X018360Y023925D02*
X018285Y024000D01*
X018135D01*
X018060Y023925D01*
Y023625D01*
X018135Y023550D01*
X018285D01*
X018360Y023625D01*
X018810Y024000D02*
X018660Y023925D01*
X018510Y023775D01*
Y023625D01*
X018585Y023550D01*
X018735D01*
X018810Y023625D01*
Y023700D01*
X018735Y023775D01*
X018510D01*
X021650Y024350D02*
X021800D01*
X021725D01*
Y023900D01*
X021650D01*
X021800D01*
X022325D02*
X022025D01*
X022325Y024200D01*
Y024275D01*
X022250Y024350D01*
X022100D01*
X022025Y024275D01*
X018475Y017450D02*
X018325D01*
X018250Y017375D01*
Y017075D01*
X018325Y017000D01*
X018475D01*
X018550Y017075D01*
Y017375D01*
X018475Y017450D01*
X018700Y017300D02*
Y017075D01*
X018775Y017000D01*
X019000D01*
Y017300D01*
X019225Y017375D02*
Y017300D01*
X019150D01*
X019300D01*
X019225D01*
Y017075D01*
X019300Y017000D01*
X019525Y016850D02*
Y017300D01*
X019750D01*
X019824Y017225D01*
Y017075D01*
X019750Y017000D01*
X019525D01*
X019974Y017300D02*
Y017075D01*
X020049Y017000D01*
X020274D01*
Y017300D01*
X020499Y017375D02*
Y017300D01*
X020424D01*
X020574D01*
X020499D01*
Y017075D01*
X020574Y017000D01*
X020799D02*
X020949D01*
X020874D01*
Y017450D01*
X020799Y017375D01*
X021700Y019600D02*
Y020050D01*
X021925D01*
X022000Y019975D01*
Y019825D01*
X021925Y019750D01*
X021700D01*
X021850D02*
X022000Y019600D01*
X022150D02*
X022300D01*
X022225D01*
Y020050D01*
X022150Y019975D01*
X022525Y019525D02*
X022825D01*
X022975Y019600D02*
X023125D01*
X023050D01*
Y020050D01*
X022975Y019975D01*
X021750Y021850D02*
Y022300D01*
X021975D01*
X022050Y022225D01*
Y022075D01*
X021975Y022000D01*
X021750D01*
X021900D02*
X022050Y021850D01*
X022200D02*
X022350D01*
X022275D01*
Y022300D01*
X022200Y022225D01*
X022575Y021775D02*
X022875D01*
X023324Y021850D02*
X023025D01*
X023324Y022150D01*
Y022225D01*
X023250Y022300D01*
X023100D01*
X023025Y022225D01*
X032770Y019450D02*
Y019900D01*
X032995D01*
X033070Y019825D01*
Y019675D01*
X032995Y019600D01*
X032770D01*
X032920D02*
X033070Y019450D01*
X033445D02*
Y019900D01*
X033220Y019675D01*
X033520D01*
X033670Y019375D02*
X033970D01*
X034120Y019450D02*
X034270D01*
X034195D01*
Y019900D01*
X034120Y019825D01*
X032500Y021750D02*
Y022200D01*
X032725D01*
X032800Y022125D01*
Y021975D01*
X032725Y021900D01*
X032500D01*
X032650D02*
X032800Y021750D01*
X033175D02*
Y022200D01*
X032950Y021975D01*
X033250D01*
X033400Y021675D02*
X033700D01*
X034149Y021750D02*
X033850D01*
X034149Y022050D01*
Y022125D01*
X034074Y022200D01*
X033925D01*
X033850Y022125D01*
X035950Y021650D02*
Y022100D01*
X036175D01*
X036250Y022025D01*
Y021875D01*
X036175Y021800D01*
X035950D01*
X036100D02*
X036250Y021650D01*
X036700Y022100D02*
X036400D01*
Y021875D01*
X036550Y021950D01*
X036625D01*
X036700Y021875D01*
Y021725D01*
X036625Y021650D01*
X036475D01*
X036400Y021725D01*
X036850Y021575D02*
X037150D01*
X037300Y021650D02*
X037450D01*
X037375D01*
Y022100D01*
X037300Y022025D01*
X036200Y019600D02*
Y020050D01*
X036425D01*
X036500Y019975D01*
Y019825D01*
X036425Y019750D01*
X036200D01*
X036350D02*
X036500Y019600D01*
X036950Y020050D02*
X036650D01*
Y019825D01*
X036800Y019900D01*
X036875D01*
X036950Y019825D01*
Y019675D01*
X036875Y019600D01*
X036725D01*
X036650Y019675D01*
X037100Y019525D02*
X037400D01*
X037849Y019600D02*
X037550D01*
X037849Y019900D01*
Y019975D01*
X037774Y020050D01*
X037625D01*
X037550Y019975D01*
X025450Y019600D02*
Y020050D01*
X025675D01*
X025750Y019975D01*
Y019825D01*
X025675Y019750D01*
X025450D01*
X025600D02*
X025750Y019600D01*
X026200D02*
X025900D01*
X026200Y019900D01*
Y019975D01*
X026125Y020050D01*
X025975D01*
X025900Y019975D01*
X026350Y019525D02*
X026650D01*
X026800Y019600D02*
X026950D01*
X026875D01*
Y020050D01*
X026800Y019975D01*
X025250Y021700D02*
Y022150D01*
X025475D01*
X025550Y022075D01*
Y021925D01*
X025475Y021850D01*
X025250D01*
X025400D02*
X025550Y021700D01*
X026000D02*
X025700D01*
X026000Y022000D01*
Y022075D01*
X025925Y022150D01*
X025775D01*
X025700Y022075D01*
X026150Y021625D02*
X026450D01*
X026899Y021700D02*
X026600D01*
X026899Y022000D01*
Y022075D01*
X026824Y022150D01*
X026675D01*
X026600Y022075D01*
X029550Y019050D02*
X029100D01*
Y019275D01*
X029175Y019350D01*
X029325D01*
X029400Y019275D01*
Y019050D01*
Y019200D02*
X029550Y019350D01*
X029175Y019500D02*
X029100Y019575D01*
Y019725D01*
X029175Y019800D01*
X029250D01*
X029325Y019725D01*
Y019650D01*
Y019725D01*
X029400Y019800D01*
X029475D01*
X029550Y019725D01*
Y019575D01*
X029475Y019500D01*
X029625Y019950D02*
Y020250D01*
X029550Y020400D02*
Y020550D01*
Y020475D01*
X029100D01*
X029175Y020400D01*
X030450Y019000D02*
X030000D01*
Y019225D01*
X030075Y019300D01*
X030225D01*
X030300Y019225D01*
Y019000D01*
Y019150D02*
X030450Y019300D01*
X030075Y019450D02*
X030000Y019525D01*
Y019675D01*
X030075Y019750D01*
X030150D01*
X030225Y019675D01*
Y019600D01*
Y019675D01*
X030300Y019750D01*
X030375D01*
X030450Y019675D01*
Y019525D01*
X030375Y019450D01*
X030525Y019900D02*
Y020200D01*
X030450Y020649D02*
Y020350D01*
X030150Y020649D01*
X030075D01*
X030000Y020574D01*
Y020425D01*
X030075Y020350D01*
X033480Y023620D02*
Y024070D01*
X033705D01*
X033780Y023995D01*
Y023845D01*
X033705Y023770D01*
X033480D01*
X033630D02*
X033780Y023620D01*
X034230Y024070D02*
X034080Y023995D01*
X033930Y023845D01*
Y023695D01*
X034005Y023620D01*
X034155D01*
X034230Y023695D01*
Y023770D01*
X034155Y023845D01*
X033930D01*
X034380Y023545D02*
X034680D01*
X035129Y023620D02*
X034830D01*
X035129Y023920D01*
Y023995D01*
X035054Y024070D01*
X034905D01*
X034830Y023995D01*
X032630Y023620D02*
Y024070D01*
X032855D01*
X032930Y023995D01*
Y023845D01*
X032855Y023770D01*
X032630D01*
X032780D02*
X032930Y023620D01*
X033380Y024070D02*
X033230Y023995D01*
X033080Y023845D01*
Y023695D01*
X033155Y023620D01*
X033305D01*
X033380Y023695D01*
Y023770D01*
X033305Y023845D01*
X033080D01*
X033530Y023545D02*
X033830D01*
X033980Y023620D02*
X034130D01*
X034055D01*
Y024070D01*
X033980Y023995D01*
X032720Y024800D02*
Y025250D01*
X032945D01*
X033020Y025175D01*
Y025025D01*
X032945Y024950D01*
X032720D01*
X032870D02*
X033020Y024800D01*
X033170Y025250D02*
X033470D01*
Y025175D01*
X033170Y024875D01*
Y024800D01*
X033620Y024725D02*
X033920D01*
X034070Y024800D02*
X034220D01*
X034145D01*
Y025250D01*
X034070Y025175D01*
X032070Y024015D02*
X031995Y024090D01*
X031845D01*
X031770Y024015D01*
Y023715D01*
X031845Y023640D01*
X031995D01*
X032070Y023715D01*
X032220Y023640D02*
X032370D01*
X032295D01*
Y024090D01*
X032220Y024015D01*
X032895Y024090D02*
X032595D01*
Y023865D01*
X032745Y023940D01*
X032820D01*
X032895Y023865D01*
Y023715D01*
X032820Y023640D01*
X032670D01*
X032595Y023715D01*
X033160Y025855D02*
X033085Y025930D01*
X032935D01*
X032860Y025855D01*
Y025555D01*
X032935Y025480D01*
X033085D01*
X033160Y025555D01*
X033310Y025480D02*
X033460D01*
X033385D01*
Y025930D01*
X033310Y025855D01*
X033985Y025930D02*
X033685D01*
Y025705D01*
X033835Y025780D01*
X033910D01*
X033985Y025705D01*
Y025555D01*
X033910Y025480D01*
X033760D01*
X033685Y025555D01*
X031970Y025665D02*
X031895Y025740D01*
X031745D01*
X031670Y025665D01*
Y025365D01*
X031745Y025290D01*
X031895D01*
X031970Y025365D01*
X032120Y025290D02*
X032270D01*
X032195D01*
Y025740D01*
X032120Y025665D01*
X032795Y025290D02*
X032495D01*
X032795Y025590D01*
Y025665D01*
X032720Y025740D01*
X032570D01*
X032495Y025665D01*
X038925Y021200D02*
X039000Y021275D01*
Y021425D01*
X038925Y021500D01*
X038625D01*
X038550Y021425D01*
Y021275D01*
X038625Y021200D01*
X038550Y021050D02*
Y020900D01*
Y020975D01*
X039000D01*
X038925Y021050D01*
X039000Y020375D02*
Y020675D01*
X038775D01*
X038850Y020525D01*
Y020450D01*
X038775Y020375D01*
X038625D01*
X038550Y020450D01*
Y020600D01*
X038625Y020675D01*
X034900Y019825D02*
X034825Y019900D01*
X034675D01*
X034600Y019825D01*
Y019525D01*
X034675Y019450D01*
X034825D01*
X034900Y019525D01*
X035050Y019450D02*
X035200D01*
X035125D01*
Y019900D01*
X035050Y019825D01*
X035650Y019450D02*
Y019900D01*
X035425Y019675D01*
X035725D01*
X034764Y022123D02*
X034689Y022198D01*
X034539D01*
X034464Y022123D01*
Y021823D01*
X034539Y021748D01*
X034689D01*
X034764Y021823D01*
X034913Y021748D02*
X035063D01*
X034988D01*
Y022198D01*
X034913Y022123D01*
X035288D02*
X035363Y022198D01*
X035513D01*
X035588Y022123D01*
Y022048D01*
X035513Y021973D01*
X035438D01*
X035513D01*
X035588Y021898D01*
Y021823D01*
X035513Y021748D01*
X035363D01*
X035288Y021823D01*
X031280Y019855D02*
X031205Y019930D01*
X031055D01*
X030980Y019855D01*
Y019555D01*
X031055Y019480D01*
X031205D01*
X031280Y019555D01*
X031430Y019480D02*
X031580D01*
X031505D01*
Y019930D01*
X031430Y019855D01*
X032105Y019480D02*
X031805D01*
X032105Y019780D01*
Y019855D01*
X032030Y019930D01*
X031880D01*
X031805Y019855D01*
X031214Y022123D02*
X031139Y022198D01*
X030989D01*
X030914Y022123D01*
Y021823D01*
X030989Y021748D01*
X031139D01*
X031214Y021823D01*
X031363Y021748D02*
X031513D01*
X031438D01*
Y022198D01*
X031363Y022123D01*
X031738Y021748D02*
X031888D01*
X031813D01*
Y022198D01*
X031738Y022123D01*
X027850Y019825D02*
X027775Y019900D01*
X027625D01*
X027550Y019825D01*
Y019525D01*
X027625Y019450D01*
X027775D01*
X027850Y019525D01*
X028000Y019450D02*
X028150D01*
X028075D01*
Y019900D01*
X028000Y019825D01*
X028375D02*
X028450Y019900D01*
X028600D01*
X028675Y019825D01*
Y019525D01*
X028600Y019450D01*
X028450D01*
X028375Y019525D01*
Y019825D01*
X027850Y022075D02*
X027775Y022150D01*
X027625D01*
X027550Y022075D01*
Y021775D01*
X027625Y021700D01*
X027775D01*
X027850Y021775D01*
X028000D02*
X028075Y021700D01*
X028225D01*
X028300Y021775D01*
Y022075D01*
X028225Y022150D01*
X028075D01*
X028000Y022075D01*
Y022000D01*
X028075Y021925D01*
X028300D01*
X024160Y019855D02*
X024085Y019930D01*
X023935D01*
X023860Y019855D01*
Y019555D01*
X023935Y019480D01*
X024085D01*
X024160Y019555D01*
X024310Y019855D02*
X024385Y019930D01*
X024535D01*
X024610Y019855D01*
Y019780D01*
X024535Y019705D01*
X024610Y019630D01*
Y019555D01*
X024535Y019480D01*
X024385D01*
X024310Y019555D01*
Y019630D01*
X024385Y019705D01*
X024310Y019780D01*
Y019855D01*
X024385Y019705D02*
X024535D01*
X038775Y017550D02*
X038625D01*
X038550Y017475D01*
Y017175D01*
X038625Y017100D01*
X038775D01*
X038850Y017175D01*
Y017475D01*
X038775Y017550D01*
X039000Y017400D02*
Y017175D01*
X039075Y017100D01*
X039300D01*
Y017400D01*
X039525Y017475D02*
Y017400D01*
X039450D01*
X039600D01*
X039525D01*
Y017175D01*
X039600Y017100D01*
X039825Y016950D02*
Y017400D01*
X040050D01*
X040124Y017325D01*
Y017175D01*
X040050Y017100D01*
X039825D01*
X040274Y017400D02*
Y017175D01*
X040349Y017100D01*
X040574D01*
Y017400D01*
X040799Y017475D02*
Y017400D01*
X040724D01*
X040874D01*
X040799D01*
Y017175D01*
X040874Y017100D01*
X041399D02*
X041099D01*
X041399Y017400D01*
Y017475D01*
X041324Y017550D01*
X041174D01*
X041099Y017475D01*
X020970Y024265D02*
X020895Y024340D01*
X020745D01*
X020670Y024265D01*
Y023965D01*
X020745Y023890D01*
X020895D01*
X020970Y023965D01*
X021420Y023890D02*
X021120D01*
X021420Y024190D01*
Y024265D01*
X021345Y024340D01*
X021195D01*
X021120Y024265D01*
X017100Y016750D02*
Y026050D01*
Y016750D02*
X042150D01*
Y026050D01*
X017100D02*
X042150D01*
D29*
X027856Y022598D02*
G03*
X027856Y022598I-000049J000000D01*
G01*
X023008Y023272D02*
G03*
X023008Y023272I-000049J000000D01*
G01*
D30*
X028457Y023424D02*
G03*
X028457Y023424I-000118J000000D01*
G01*
D31*
X019500Y025342D02*
X027500D01*
Y024358D02*
Y025342D01*
X019500Y024358D02*
X027500D01*
X019500D02*
Y025342D01*
X033639Y023867D02*
Y023946D01*
X034053Y023867D02*
Y023946D01*
X027945Y023031D02*
X031055D01*
X027945Y024369D02*
X031055D01*
X027945Y023031D02*
Y024369D01*
X031055Y023031D02*
Y024369D01*
X020806Y020102D02*
X021594D01*
X020806D02*
Y021598D01*
X021594D01*
Y020102D02*
Y021598D01*
X019522Y022843D02*
X019837D01*
X020093Y022587D01*
Y020757D02*
Y022587D01*
X018263Y022843D02*
X018578D01*
X018007Y022587D02*
X018263Y022843D01*
X018007Y020757D02*
Y022587D01*
Y020757D02*
X018578D01*
X019522D02*
X020093D01*
X018381Y022440D02*
X018578D01*
X018479Y022342D02*
Y022538D01*
X022841Y022702D02*
Y022898D01*
X021659Y022702D02*
Y022898D01*
X022841D01*
X021659Y022702D02*
X022841D01*
X022461Y020657D02*
X022539D01*
X022461Y020243D02*
X022539D01*
X022461Y021507D02*
X022539D01*
X022461Y021093D02*
X022539D01*
X033148Y020243D02*
X033227D01*
X033148Y020657D02*
X033227D01*
X033561Y021043D02*
X033639D01*
X033561Y021457D02*
X033639D01*
X036661Y021093D02*
X036739D01*
X036661Y021507D02*
X036739D01*
X036711Y020243D02*
X036789D01*
X036711Y020657D02*
X036789D01*
X026023Y020243D02*
X026102D01*
X026023Y020657D02*
X026102D01*
X026061Y021093D02*
X026139D01*
X026061Y021507D02*
X026139D01*
X029244Y020703D02*
Y020782D01*
X029657Y020703D02*
Y020782D01*
X030094Y020728D02*
Y020807D01*
X030507Y020728D02*
Y020807D01*
X033915Y022686D02*
Y022764D01*
X033502Y022686D02*
Y022764D01*
X033065Y022686D02*
Y022764D01*
X032652Y022686D02*
Y022764D01*
X032739Y023867D02*
Y023946D01*
X033153Y023867D02*
Y023946D01*
X031606Y023452D02*
X032394D01*
X031606D02*
Y024948D01*
X032394D01*
Y023452D02*
Y024948D01*
X035983Y020056D02*
Y020844D01*
X034486Y020056D02*
X035983D01*
X034486D02*
Y020844D01*
X035983D01*
X032420Y020056D02*
Y020844D01*
X030924Y020056D02*
X032420D01*
X030924D02*
Y020844D01*
X032420D01*
X028858Y020056D02*
Y020844D01*
X027361Y020056D02*
X028858D01*
X027361D02*
Y020844D01*
X028858D01*
X025295Y020056D02*
Y020844D01*
X023799Y020056D02*
X025295D01*
X023799D02*
Y020844D01*
X025295D01*
X020606Y022052D02*
X021394D01*
X020606D02*
Y023548D01*
X021394D01*
Y022052D02*
Y023548D01*
D32*
X024278Y021578D02*
X024514Y021578D01*
X024278Y021027D02*
X024514D01*
X031724Y022582D02*
Y022818D01*
X032276Y022582D02*
Y022818D01*
X033282Y025126D02*
X033518D01*
X033282Y024574D02*
X033518D01*
X037724Y020782D02*
Y021018D01*
X038276Y020782D02*
Y021018D01*
X034928Y021027D02*
X035164D01*
X034928Y021578D02*
X035164D01*
X031378Y021027D02*
X031614D01*
X031378Y021578D02*
X031614D01*
X027828Y021027D02*
X028064D01*
X027828Y021578D02*
X028064D01*
D33*
X017120Y014750D02*
X029480D01*
X017120D02*
Y019850D01*
X029480D01*
Y014750D02*
Y019850D01*
X029770Y014750D02*
X042130D01*
X029770D02*
Y019850D01*
X042130D01*
Y014750D02*
Y019850D01*
M02*
