G04 Layer_Physical_Order=2*
G04 Layer_Color=11436288*
%FSAX24Y24*%
%MOIN*%
G70*
G01*
G75*
G04:AMPARAMS|DCode=18|XSize=47.2mil|YSize=35.4mil|CornerRadius=8.9mil|HoleSize=0mil|Usage=FLASHONLY|Rotation=270.000|XOffset=0mil|YOffset=0mil|HoleType=Round|Shape=RoundedRectangle|*
%AMROUNDEDRECTD18*
21,1,0.0472,0.0177,0,0,270.0*
21,1,0.0295,0.0354,0,0,270.0*
1,1,0.0177,-0.0089,-0.0148*
1,1,0.0177,-0.0089,0.0148*
1,1,0.0177,0.0089,0.0148*
1,1,0.0177,0.0089,-0.0148*
%
%ADD18ROUNDEDRECTD18*%
%ADD19C,0.0120*%
%ADD20C,0.0100*%
%ADD21R,0.0610X0.0610*%
%ADD22C,0.0610*%
%ADD23C,0.0600*%
G04:AMPARAMS|DCode=24|XSize=80mil|YSize=70mil|CornerRadius=0mil|HoleSize=0mil|Usage=FLASHONLY|Rotation=270.000|XOffset=0mil|YOffset=0mil|HoleType=Round|Shape=RoundedRectangle|*
%AMROUNDEDRECTD24*
21,1,0.0800,0.0700,0,0,270.0*
21,1,0.0800,0.0700,0,0,270.0*
1,1,0.0000,-0.0350,-0.0400*
1,1,0.0000,-0.0350,0.0400*
1,1,0.0000,0.0350,0.0400*
1,1,0.0000,0.0350,-0.0400*
%
%ADD24ROUNDEDRECTD24*%
G04:AMPARAMS|DCode=25|XSize=90mil|YSize=180mil|CornerRadius=0mil|HoleSize=0mil|Usage=FLASHONLY|Rotation=270.000|XOffset=0mil|YOffset=0mil|HoleType=Round|Shape=RoundedRectangle|*
%AMROUNDEDRECTD25*
21,1,0.0900,0.1800,0,0,270.0*
21,1,0.0900,0.1800,0,0,270.0*
1,1,0.0000,-0.0900,-0.0450*
1,1,0.0000,-0.0900,0.0450*
1,1,0.0000,0.0900,0.0450*
1,1,0.0000,0.0900,-0.0450*
%
%ADD25ROUNDEDRECTD25*%
%ADD26R,0.0700X0.0800*%
%ADD27C,0.1100*%
%ADD28C,0.0500*%
G36*
X042150Y016750D02*
X017100D01*
Y026050D01*
X042150D01*
Y016750D01*
D02*
G37*
%LPC*%
G36*
X030970Y019099D02*
X030863Y019088D01*
X030712Y019043D01*
X030573Y018968D01*
X030452Y018868D01*
X030436Y018850D01*
X030020D01*
Y018350D01*
X030970D01*
Y019099D01*
D02*
G37*
G36*
X031070D02*
Y018350D01*
X032020D01*
Y018850D01*
X031604D01*
X031588Y018868D01*
X031467Y018968D01*
X031328Y019043D01*
X031177Y019088D01*
X031070Y019099D01*
D02*
G37*
G36*
X034220Y019350D02*
X033320D01*
Y018350D01*
X034220D01*
Y019350D01*
D02*
G37*
G36*
X028280Y019099D02*
Y018350D01*
X029230D01*
Y018850D01*
X028814D01*
X028798Y018868D01*
X028677Y018968D01*
X028538Y019043D01*
X028387Y019088D01*
X028280Y019099D01*
D02*
G37*
G36*
X023750Y019350D02*
X022850D01*
Y018350D01*
X023750D01*
Y019350D01*
D02*
G37*
G36*
X025930Y018800D02*
X025530D01*
Y018350D01*
X025930D01*
Y018800D01*
D02*
G37*
G36*
X028180Y019099D02*
X028073Y019088D01*
X027922Y019043D01*
X027783Y018968D01*
X027662Y018868D01*
X027646Y018850D01*
X027230D01*
Y018350D01*
X028180D01*
Y019099D01*
D02*
G37*
G36*
X038580Y018800D02*
X038180D01*
Y018350D01*
X038580D01*
Y018800D01*
D02*
G37*
G36*
X031450Y025553D02*
X031359Y025541D01*
X031273Y025506D01*
X031200Y025450D01*
X031144Y025377D01*
X031109Y025291D01*
X031097Y025200D01*
X031109Y025109D01*
X031144Y025023D01*
X031200Y024950D01*
X031273Y024894D01*
X031287Y024889D01*
Y022400D01*
X031299Y022338D01*
X031335Y022285D01*
X032215Y021405D01*
X032209Y021391D01*
X032197Y021300D01*
X032209Y021209D01*
X032244Y021123D01*
X032300Y021050D01*
X032373Y020994D01*
X032459Y020959D01*
X032550Y020947D01*
X032641Y020959D01*
X032727Y020994D01*
X032800Y021050D01*
X032856Y021123D01*
X032891Y021209D01*
X032903Y021300D01*
X032891Y021391D01*
X032856Y021477D01*
X032800Y021550D01*
X032727Y021606D01*
X032641Y021641D01*
X032550Y021653D01*
X032459Y021641D01*
X032445Y021635D01*
X031613Y022468D01*
Y024889D01*
X031627Y024894D01*
X031700Y024950D01*
X031756Y025023D01*
X031791Y025109D01*
X031803Y025200D01*
X031791Y025291D01*
X031756Y025377D01*
X031700Y025450D01*
X031627Y025506D01*
X031541Y025541D01*
X031450Y025553D01*
D02*
G37*
G36*
X025850Y022603D02*
X025759Y022591D01*
X025673Y022556D01*
X025600Y022500D01*
X025544Y022427D01*
X025509Y022341D01*
X025497Y022250D01*
X025509Y022159D01*
X025544Y022073D01*
X025600Y022000D01*
X025673Y021944D01*
X025759Y021909D01*
X025850Y021897D01*
X025941Y021909D01*
X026027Y021944D01*
X026100Y022000D01*
X026156Y022073D01*
X026191Y022159D01*
X026203Y022250D01*
X026191Y022341D01*
X026156Y022427D01*
X026100Y022500D01*
X026027Y022556D01*
X025941Y022591D01*
X025850Y022603D01*
D02*
G37*
G36*
X037850Y022600D02*
X037503D01*
X037510Y022546D01*
X037551Y022448D01*
X037615Y022365D01*
X037698Y022301D01*
X037796Y022260D01*
X037850Y022253D01*
Y022600D01*
D02*
G37*
G36*
X038580Y019350D02*
X038180D01*
Y018900D01*
X038580D01*
Y019350D01*
D02*
G37*
G36*
X040830Y019099D02*
X040723Y019088D01*
X040572Y019043D01*
X040433Y018968D01*
X040312Y018868D01*
X040296Y018850D01*
X039880D01*
Y018350D01*
X040830D01*
Y019099D01*
D02*
G37*
G36*
X040930D02*
Y018350D01*
X041880D01*
Y018850D01*
X041464D01*
X041448Y018868D01*
X041327Y018968D01*
X041188Y019043D01*
X041037Y019088D01*
X040930Y019099D01*
D02*
G37*
G36*
X025930Y019350D02*
X025530D01*
Y018900D01*
X025930D01*
Y019350D01*
D02*
G37*
G36*
X019370Y018250D02*
X018420D01*
Y017501D01*
X018527Y017512D01*
X018678Y017557D01*
X018817Y017632D01*
X018938Y017732D01*
X018954Y017750D01*
X019370D01*
Y018250D01*
D02*
G37*
G36*
X028180D02*
X027230D01*
Y017750D01*
X027646D01*
X027662Y017732D01*
X027783Y017632D01*
X027922Y017557D01*
X028073Y017512D01*
X028180Y017501D01*
Y018250D01*
D02*
G37*
G36*
X029230D02*
X028280D01*
Y017501D01*
X028387Y017512D01*
X028538Y017557D01*
X028677Y017632D01*
X028798Y017732D01*
X028814Y017750D01*
X029230D01*
Y018250D01*
D02*
G37*
G36*
X018320D02*
X017370D01*
Y017750D01*
X017786D01*
X017802Y017732D01*
X017923Y017632D01*
X018062Y017557D01*
X018213Y017512D01*
X018320Y017501D01*
Y018250D01*
D02*
G37*
G36*
X022110D02*
X021210D01*
Y017250D01*
X022110D01*
Y018250D01*
D02*
G37*
G36*
X023200D02*
X022300D01*
Y017250D01*
X023200D01*
Y018250D01*
D02*
G37*
G36*
X036940D02*
X036040D01*
Y017250D01*
X036940D01*
Y018250D01*
D02*
G37*
G36*
X030970D02*
X030020D01*
Y017750D01*
X030436D01*
X030452Y017732D01*
X030573Y017632D01*
X030712Y017557D01*
X030863Y017512D01*
X030970Y017501D01*
Y018250D01*
D02*
G37*
G36*
X018420Y019099D02*
Y018350D01*
X019370D01*
Y018850D01*
X018954D01*
X018938Y018868D01*
X018817Y018968D01*
X018678Y019043D01*
X018527Y019088D01*
X018420Y019099D01*
D02*
G37*
G36*
X021570Y019350D02*
X020670D01*
Y018350D01*
X021570D01*
Y019350D01*
D02*
G37*
G36*
X022660D02*
X021760D01*
Y018350D01*
X022660D01*
Y019350D01*
D02*
G37*
G36*
X018320Y019099D02*
X018213Y019088D01*
X018062Y019043D01*
X017923Y018968D01*
X017802Y018868D01*
X017786Y018850D01*
X017370D01*
Y018350D01*
X018320D01*
Y019099D01*
D02*
G37*
G36*
X032020Y018250D02*
X031070D01*
Y017501D01*
X031177Y017512D01*
X031328Y017557D01*
X031467Y017632D01*
X031588Y017732D01*
X031604Y017750D01*
X032020D01*
Y018250D01*
D02*
G37*
G36*
X040830D02*
X039880D01*
Y017750D01*
X040296D01*
X040312Y017732D01*
X040433Y017632D01*
X040572Y017557D01*
X040723Y017512D01*
X040830Y017501D01*
Y018250D01*
D02*
G37*
G36*
X041880D02*
X040930D01*
Y017501D01*
X041037Y017512D01*
X041188Y017557D01*
X041327Y017632D01*
X041448Y017732D01*
X041464Y017750D01*
X041880D01*
Y018250D01*
D02*
G37*
G36*
X038297Y022600D02*
X037950D01*
Y022253D01*
X038004Y022260D01*
X038102Y022301D01*
X038185Y022365D01*
X038249Y022448D01*
X038290Y022546D01*
X038297Y022600D01*
D02*
G37*
G36*
X017950Y025348D02*
X017873Y025341D01*
X017750Y025303D01*
X017637Y025243D01*
X017538Y025162D01*
X017457Y025063D01*
X017397Y024950D01*
X017359Y024827D01*
X017352Y024750D01*
X017950D01*
Y025348D01*
D02*
G37*
G36*
X020405Y024800D02*
X020050D01*
Y024445D01*
X020405D01*
Y024800D01*
D02*
G37*
G36*
X040950Y025348D02*
X040873Y025341D01*
X040750Y025303D01*
X040637Y025243D01*
X040538Y025162D01*
X040457Y025063D01*
X040397Y024950D01*
X040359Y024827D01*
X040352Y024750D01*
X040950D01*
Y025348D01*
D02*
G37*
G36*
X018050D02*
Y024750D01*
X018648D01*
X018641Y024827D01*
X018603Y024950D01*
X018543Y025063D01*
X018462Y025162D01*
X018363Y025243D01*
X018250Y025303D01*
X018127Y025341D01*
X018050Y025348D01*
D02*
G37*
G36*
X037972Y024424D02*
Y024077D01*
X038319D01*
X038312Y024131D01*
X038272Y024229D01*
X038208Y024312D01*
X038124Y024376D01*
X038027Y024417D01*
X037972Y024424D01*
D02*
G37*
G36*
X037872D02*
X037818Y024417D01*
X037721Y024376D01*
X037637Y024312D01*
X037573Y024229D01*
X037533Y024131D01*
X037526Y024077D01*
X037872D01*
Y024424D01*
D02*
G37*
G36*
X019950Y024800D02*
X019595D01*
Y024445D01*
X019950D01*
Y024800D01*
D02*
G37*
G36*
X022000Y025259D02*
X021894Y025245D01*
X021796Y025204D01*
X021711Y025139D01*
X021646Y025054D01*
X021605Y024956D01*
X021591Y024850D01*
X021605Y024744D01*
X021646Y024646D01*
X021711Y024561D01*
X021796Y024496D01*
X021894Y024455D01*
X022000Y024441D01*
X022106Y024455D01*
X022204Y024496D01*
X022289Y024561D01*
X022354Y024646D01*
X022395Y024744D01*
X022409Y024850D01*
X022395Y024956D01*
X022354Y025054D01*
X022289Y025139D01*
X022204Y025204D01*
X022106Y025245D01*
X022000Y025259D01*
D02*
G37*
G36*
X020405Y025255D02*
X020050D01*
Y024900D01*
X020405D01*
Y025255D01*
D02*
G37*
G36*
X019950D02*
X019595D01*
Y024900D01*
X019950D01*
Y025255D01*
D02*
G37*
G36*
X030652Y025490D02*
X030613D01*
Y025200D01*
X030844D01*
Y025298D01*
X030830Y025371D01*
X030788Y025434D01*
X030726Y025475D01*
X030652Y025490D01*
D02*
G37*
G36*
X030513D02*
X030475D01*
X030401Y025475D01*
X030339Y025434D01*
X030297Y025371D01*
X030283Y025298D01*
Y025200D01*
X030513D01*
Y025490D01*
D02*
G37*
G36*
X028950Y025803D02*
X028859Y025791D01*
X028773Y025756D01*
X028700Y025700D01*
X028644Y025627D01*
X028609Y025541D01*
X028597Y025450D01*
X028609Y025359D01*
X028644Y025273D01*
X028700Y025200D01*
X028773Y025144D01*
X028859Y025109D01*
X028950Y025097D01*
X028970Y025100D01*
X029035Y025035D01*
X029088Y024999D01*
X029150Y024987D01*
X029459D01*
X029470Y024929D01*
X029512Y024866D01*
X029574Y024825D01*
X029648Y024810D01*
X029825D01*
X029899Y024825D01*
X029961Y024866D01*
X030003Y024929D01*
X030017Y025002D01*
Y025298D01*
X030003Y025371D01*
X029961Y025434D01*
X029899Y025475D01*
X029825Y025490D01*
X029648D01*
X029574Y025475D01*
X029512Y025434D01*
X029470Y025371D01*
X029459Y025313D01*
X029317D01*
X029294Y025348D01*
X029292Y025363D01*
X029303Y025450D01*
X029291Y025541D01*
X029256Y025627D01*
X029200Y025700D01*
X029127Y025756D01*
X029041Y025791D01*
X028950Y025803D01*
D02*
G37*
G36*
X041050Y025348D02*
Y024750D01*
X041648D01*
X041641Y024827D01*
X041603Y024950D01*
X041543Y025063D01*
X041462Y025162D01*
X041363Y025243D01*
X041250Y025303D01*
X041127Y025341D01*
X041050Y025348D01*
D02*
G37*
G36*
X030844Y025100D02*
X030613D01*
Y024810D01*
X030652D01*
X030726Y024825D01*
X030788Y024866D01*
X030830Y024929D01*
X030844Y025002D01*
Y025100D01*
D02*
G37*
G36*
X030513D02*
X030283D01*
Y025002D01*
X030297Y024929D01*
X030339Y024866D01*
X030401Y024825D01*
X030475Y024810D01*
X030513D01*
Y025100D01*
D02*
G37*
G36*
X041648Y024650D02*
X041050D01*
Y024052D01*
X041127Y024059D01*
X041250Y024097D01*
X041363Y024157D01*
X041462Y024238D01*
X041543Y024337D01*
X041603Y024450D01*
X041641Y024573D01*
X041648Y024650D01*
D02*
G37*
G36*
X037850Y023047D02*
X037796Y023040D01*
X037698Y022999D01*
X037615Y022935D01*
X037551Y022852D01*
X037510Y022754D01*
X037503Y022700D01*
X037850D01*
Y023047D01*
D02*
G37*
G36*
X037950D02*
Y022700D01*
X038297D01*
X038290Y022754D01*
X038249Y022852D01*
X038185Y022935D01*
X038102Y022999D01*
X038004Y023040D01*
X037950Y023047D01*
D02*
G37*
G36*
X032250Y025653D02*
X032159Y025641D01*
X032073Y025606D01*
X032000Y025550D01*
X031944Y025477D01*
X031909Y025391D01*
X031897Y025300D01*
X031909Y025209D01*
X031944Y025123D01*
X032000Y025050D01*
X032073Y024994D01*
X032159Y024959D01*
X032250Y024947D01*
X032341Y024959D01*
X032427Y024994D01*
X032500Y025050D01*
X032556Y025123D01*
X032561Y025137D01*
X034582D01*
X036837Y022882D01*
Y022550D01*
X036843Y022518D01*
X036797Y022494D01*
X036525Y022765D01*
X036472Y022801D01*
X036410Y022813D01*
X035265D01*
X035249Y022852D01*
X035185Y022935D01*
X035102Y022999D01*
X035004Y023040D01*
X034900Y023053D01*
X034796Y023040D01*
X034698Y022999D01*
X034615Y022935D01*
X034551Y022852D01*
X034510Y022754D01*
X034497Y022650D01*
X034510Y022546D01*
X034551Y022448D01*
X034615Y022365D01*
X034698Y022301D01*
X034796Y022260D01*
X034900Y022247D01*
X035004Y022260D01*
X035102Y022301D01*
X035185Y022365D01*
X035249Y022448D01*
X035265Y022487D01*
X036342D01*
X037417Y021412D01*
Y019350D01*
X036931D01*
X036515Y019765D01*
X036462Y019801D01*
X036400Y019813D01*
X024930D01*
X024868Y019801D01*
X024815Y019765D01*
X024779Y019712D01*
X024767Y019650D01*
Y019350D01*
X024553D01*
Y020287D01*
X025941D01*
X026165Y020064D01*
X026217Y020028D01*
X026280Y020016D01*
X030329D01*
X030391Y020028D01*
X030444Y020064D01*
X031075Y020695D01*
X031111Y020748D01*
X031123Y020810D01*
Y021770D01*
X031111Y021832D01*
X031075Y021885D01*
X030983Y021977D01*
Y023349D01*
X030997Y023354D01*
X031070Y023410D01*
X031126Y023483D01*
X031161Y023569D01*
X031173Y023660D01*
X031161Y023751D01*
X031126Y023837D01*
X031070Y023910D01*
X030997Y023966D01*
X030911Y024001D01*
X030820Y024013D01*
X030729Y024001D01*
X030643Y023966D01*
X030570Y023910D01*
X030514Y023837D01*
X030479Y023751D01*
X030467Y023660D01*
X030473Y023613D01*
X030438Y023577D01*
X030396Y023583D01*
X030304Y023571D01*
X030219Y023536D01*
X030146Y023480D01*
X030090Y023407D01*
X030055Y023321D01*
X030043Y023230D01*
X030055Y023139D01*
X030090Y023053D01*
X030146Y022980D01*
X030219Y022924D01*
X030233Y022919D01*
Y022613D01*
X029851Y022232D01*
X029816Y022179D01*
X029804Y022117D01*
Y022058D01*
X029759Y022036D01*
X029733Y022056D01*
X029648Y022091D01*
X029557Y022103D01*
X029465Y022091D01*
X029398Y022063D01*
X028268D01*
X025931Y024400D01*
X025954Y024447D01*
X026000Y024441D01*
X026106Y024455D01*
X026204Y024496D01*
X026289Y024561D01*
X026354Y024646D01*
X026395Y024744D01*
X026409Y024850D01*
X026395Y024956D01*
X026354Y025054D01*
X026314Y025107D01*
X026338Y025157D01*
X026662D01*
X026686Y025107D01*
X026646Y025054D01*
X026605Y024956D01*
X026591Y024850D01*
X026605Y024744D01*
X026646Y024646D01*
X026711Y024561D01*
X026796Y024496D01*
X026894Y024455D01*
X027000Y024441D01*
X027106Y024455D01*
X027204Y024496D01*
X027289Y024561D01*
X027354Y024646D01*
X027395Y024744D01*
X027409Y024850D01*
X027395Y024956D01*
X027354Y025054D01*
X027314Y025107D01*
X027338Y025157D01*
X027761D01*
X028427Y024491D01*
Y023741D01*
X028389Y023708D01*
X028348Y023713D01*
X028257Y023701D01*
X028172Y023666D01*
X028099Y023610D01*
X028043Y023537D01*
X028007Y023451D01*
X027995Y023360D01*
X028007Y023269D01*
X028043Y023183D01*
X028099Y023110D01*
X028172Y023054D01*
X028257Y023019D01*
X028348Y023007D01*
X028440Y023019D01*
X028525Y023054D01*
X028598Y023110D01*
X028654Y023183D01*
X028689Y023269D01*
X028701Y023360D01*
X028689Y023451D01*
X028684Y023465D01*
X028705Y023486D01*
X028741Y023539D01*
X028753Y023602D01*
Y023749D01*
X028803Y023762D01*
X028850Y023700D01*
X028923Y023644D01*
X028937Y023639D01*
Y022981D01*
X028892Y022936D01*
X028875Y022940D01*
X028698D01*
X028624Y022925D01*
X028562Y022884D01*
X028520Y022821D01*
X028506Y022748D01*
Y022452D01*
X028520Y022379D01*
X028562Y022316D01*
X028624Y022275D01*
X028698Y022260D01*
X028875D01*
X028949Y022275D01*
X029011Y022316D01*
X029053Y022379D01*
X029067Y022452D01*
Y022650D01*
X029215Y022798D01*
X029251Y022851D01*
X029263Y022913D01*
Y023639D01*
X029277Y023644D01*
X029350Y023700D01*
X029406Y023773D01*
X029441Y023859D01*
X029453Y023950D01*
X029441Y024041D01*
X029406Y024127D01*
X029350Y024200D01*
X029277Y024256D01*
X029191Y024291D01*
X029100Y024303D01*
X029009Y024291D01*
X028923Y024256D01*
X028850Y024200D01*
X028803Y024138D01*
X028753Y024151D01*
Y024558D01*
X028741Y024621D01*
X028705Y024674D01*
X027944Y025435D01*
X027891Y025471D01*
X027828Y025483D01*
X023470D01*
X023408Y025471D01*
X023355Y025435D01*
X023147Y025228D01*
X023106Y025245D01*
X023000Y025259D01*
X022894Y025245D01*
X022796Y025204D01*
X022711Y025139D01*
X022646Y025054D01*
X022605Y024956D01*
X022591Y024850D01*
X022605Y024744D01*
X022646Y024646D01*
X022711Y024561D01*
X022796Y024496D01*
X022894Y024455D01*
X023000Y024441D01*
X023106Y024455D01*
X023204Y024496D01*
X023289Y024561D01*
X023354Y024646D01*
X023395Y024744D01*
X023409Y024850D01*
X023395Y024956D01*
X023378Y024997D01*
X023538Y025157D01*
X023662D01*
X023686Y025107D01*
X023646Y025054D01*
X023605Y024956D01*
X023591Y024850D01*
X023605Y024744D01*
X023646Y024646D01*
X023711Y024561D01*
X023796Y024496D01*
X023894Y024455D01*
X024000Y024441D01*
X024106Y024455D01*
X024204Y024496D01*
X024289Y024561D01*
X024354Y024646D01*
X024395Y024744D01*
X024409Y024850D01*
X024395Y024956D01*
X024354Y025054D01*
X024314Y025107D01*
X024338Y025157D01*
X024662D01*
X024686Y025107D01*
X024646Y025054D01*
X024605Y024956D01*
X024591Y024850D01*
X024605Y024744D01*
X024646Y024646D01*
X024711Y024561D01*
X024796Y024496D01*
X024894Y024455D01*
X025000Y024441D01*
X025106Y024455D01*
X025204Y024496D01*
X025289Y024561D01*
X025307Y024562D01*
X025576Y024293D01*
X025552Y024246D01*
X025500Y024253D01*
X025409Y024241D01*
X025323Y024206D01*
X025250Y024150D01*
X025194Y024077D01*
X025159Y023991D01*
X025147Y023900D01*
X025159Y023809D01*
X025194Y023723D01*
X025241Y023663D01*
X025222Y023613D01*
X024700D01*
X024638Y023601D01*
X024585Y023565D01*
X023905Y022885D01*
X023891Y022891D01*
X023800Y022903D01*
X023709Y022891D01*
X023623Y022856D01*
X023550Y022800D01*
X023494Y022727D01*
X023459Y022641D01*
X023447Y022550D01*
X023459Y022459D01*
X023494Y022373D01*
X023550Y022300D01*
X023623Y022244D01*
X023709Y022209D01*
X023800Y022197D01*
X023891Y022209D01*
X023977Y022244D01*
X024050Y022300D01*
X024106Y022373D01*
X024141Y022459D01*
X024153Y022550D01*
X024141Y022641D01*
X024135Y022655D01*
X024768Y023287D01*
X025500D01*
X025562Y023299D01*
X025615Y023335D01*
X025651Y023388D01*
X025663Y023450D01*
Y023589D01*
X025677Y023594D01*
X025750Y023650D01*
X025806Y023723D01*
X025841Y023809D01*
X025853Y023900D01*
X025846Y023952D01*
X025893Y023976D01*
X028085Y021785D01*
X028092Y021780D01*
X028081Y021727D01*
X028074Y021725D01*
X028012Y021684D01*
X027970Y021621D01*
X027956Y021548D01*
Y021450D01*
X028237D01*
Y021350D01*
X027956D01*
Y021252D01*
X027970Y021179D01*
X028012Y021116D01*
X028017Y021113D01*
X028002Y021063D01*
X027285D01*
X027218Y021115D01*
X027133Y021150D01*
X027041Y021162D01*
X026950Y021150D01*
X026865Y021115D01*
X026792Y021059D01*
X026736Y020986D01*
X026700Y020900D01*
X026688Y020809D01*
X026700Y020718D01*
X026736Y020633D01*
X026755Y020607D01*
X026733Y020562D01*
X026439D01*
X025185Y021815D01*
X025191Y021829D01*
X025203Y021920D01*
X025191Y022011D01*
X025156Y022097D01*
X025100Y022170D01*
X025027Y022226D01*
X024941Y022261D01*
X024850Y022273D01*
X024759Y022261D01*
X024673Y022226D01*
X024600Y022170D01*
X024544Y022097D01*
X024509Y022011D01*
X024497Y021920D01*
X024509Y021829D01*
X024544Y021743D01*
X024600Y021670D01*
X024673Y021614D01*
X024759Y021579D01*
X024850Y021567D01*
X024941Y021579D01*
X024955Y021585D01*
X025880Y020659D01*
X025861Y020613D01*
X024390D01*
X024328Y020601D01*
X024275Y020565D01*
X024239Y020512D01*
X024227Y020450D01*
Y019350D01*
X023940D01*
Y018350D01*
X024767D01*
Y018250D01*
X024480D01*
Y017253D01*
X024290D01*
Y018250D01*
X023390D01*
Y017250D01*
X023677D01*
Y017200D01*
X023689Y017138D01*
X023725Y017085D01*
X023835Y016975D01*
X023888Y016939D01*
X023950Y016927D01*
X034750D01*
X034812Y016939D01*
X034865Y016975D01*
X034975Y017085D01*
X035011Y017138D01*
X035023Y017200D01*
Y017250D01*
X035850D01*
Y018250D01*
X035023D01*
Y018350D01*
X035310D01*
Y019350D01*
X034410D01*
Y018350D01*
X034697D01*
Y018250D01*
X033860D01*
Y017253D01*
X025380D01*
Y018250D01*
X025093D01*
Y018350D01*
X025430D01*
Y018850D01*
Y019350D01*
X025093D01*
Y019487D01*
X036332D01*
X036433Y019386D01*
X036414Y019367D01*
X036406Y019358D01*
X036404Y019356D01*
X036361Y019350D01*
X036351Y019350D01*
X036350D01*
X036350D01*
X035500D01*
Y018350D01*
X036400D01*
Y019300D01*
Y019300D01*
Y019301D01*
X036400Y019311D01*
X036406Y019354D01*
X036408Y019356D01*
X036417Y019364D01*
X036436Y019383D01*
X036590Y019229D01*
Y018350D01*
X037417D01*
Y018250D01*
X037130D01*
Y017250D01*
X038030D01*
Y018250D01*
X037743D01*
Y018350D01*
X038080D01*
Y018850D01*
Y019350D01*
X037743D01*
Y021480D01*
X037731Y021542D01*
X037695Y021595D01*
X037644Y021647D01*
X037668Y021693D01*
X037700Y021687D01*
X038418D01*
X038444Y021623D01*
X038500Y021550D01*
X038573Y021494D01*
X038659Y021459D01*
X038750Y021447D01*
X038841Y021459D01*
X038927Y021494D01*
X039000Y021550D01*
X039056Y021623D01*
X039091Y021709D01*
X039103Y021800D01*
X039091Y021891D01*
X039056Y021977D01*
X039000Y022050D01*
X038927Y022106D01*
X038841Y022141D01*
X038750Y022153D01*
X038659Y022141D01*
X038573Y022106D01*
X038500Y022050D01*
X038472Y022013D01*
X037768D01*
X037163Y022618D01*
Y022950D01*
X037151Y023012D01*
X037115Y023065D01*
X034765Y025415D01*
X034712Y025451D01*
X034650Y025463D01*
X032561D01*
X032556Y025477D01*
X032500Y025550D01*
X032427Y025606D01*
X032341Y025641D01*
X032250Y025653D01*
D02*
G37*
G36*
X029702Y022940D02*
X029663D01*
Y022650D01*
X029894D01*
Y022748D01*
X029880Y022821D01*
X029838Y022884D01*
X029776Y022925D01*
X029702Y022940D01*
D02*
G37*
G36*
X029563Y022550D02*
X029333D01*
Y022452D01*
X029347Y022379D01*
X029389Y022316D01*
X029451Y022275D01*
X029525Y022260D01*
X029563D01*
Y022550D01*
D02*
G37*
G36*
X029894D02*
X029663D01*
Y022260D01*
X029702D01*
X029776Y022275D01*
X029838Y022316D01*
X029880Y022379D01*
X029894Y022452D01*
Y022550D01*
D02*
G37*
G36*
X029563Y022940D02*
X029525D01*
X029451Y022925D01*
X029389Y022884D01*
X029347Y022821D01*
X029333Y022748D01*
Y022650D01*
X029563D01*
Y022940D01*
D02*
G37*
G36*
X040950Y024650D02*
X040352D01*
X040359Y024573D01*
X040397Y024450D01*
X040457Y024337D01*
X040538Y024238D01*
X040637Y024157D01*
X040750Y024097D01*
X040873Y024059D01*
X040950Y024052D01*
Y024650D01*
D02*
G37*
G36*
X018648D02*
X018050D01*
Y024052D01*
X018127Y024059D01*
X018250Y024097D01*
X018363Y024157D01*
X018462Y024238D01*
X018543Y024337D01*
X018603Y024450D01*
X018641Y024573D01*
X018648Y024650D01*
D02*
G37*
G36*
X017950D02*
X017352D01*
X017359Y024573D01*
X017397Y024450D01*
X017457Y024337D01*
X017538Y024238D01*
X017637Y024157D01*
X017750Y024097D01*
X017873Y024059D01*
X017950Y024052D01*
Y024650D01*
D02*
G37*
G36*
X038319Y023977D02*
X037972D01*
Y023630D01*
X038027Y023637D01*
X038124Y023677D01*
X038208Y023742D01*
X038272Y023825D01*
X038312Y023922D01*
X038319Y023977D01*
D02*
G37*
G36*
X021000Y025259D02*
X020894Y025245D01*
X020796Y025204D01*
X020711Y025139D01*
X020646Y025054D01*
X020605Y024956D01*
X020591Y024850D01*
X020605Y024744D01*
X020646Y024646D01*
X020711Y024561D01*
X020796Y024496D01*
X020837Y024479D01*
Y024441D01*
X020849Y024379D01*
X020885Y024326D01*
X021376Y023835D01*
X021429Y023799D01*
X021491Y023787D01*
X022732D01*
X022915Y023605D01*
X022909Y023591D01*
X022897Y023500D01*
X022909Y023409D01*
X022944Y023323D01*
X023000Y023250D01*
X023073Y023194D01*
X023159Y023159D01*
X023250Y023147D01*
X023341Y023159D01*
X023427Y023194D01*
X023500Y023250D01*
X023556Y023323D01*
X023591Y023409D01*
X023603Y023500D01*
X023591Y023591D01*
X023556Y023677D01*
X023500Y023750D01*
X023427Y023806D01*
X023341Y023841D01*
X023250Y023853D01*
X023159Y023841D01*
X023145Y023835D01*
X022915Y024065D01*
X022862Y024101D01*
X022800Y024113D01*
X021559D01*
X021220Y024452D01*
X021228Y024515D01*
X021289Y024561D01*
X021354Y024646D01*
X021395Y024744D01*
X021409Y024850D01*
X021395Y024956D01*
X021354Y025054D01*
X021289Y025139D01*
X021204Y025204D01*
X021106Y025245D01*
X021000Y025259D01*
D02*
G37*
G36*
X034922Y024430D02*
X034818Y024417D01*
X034721Y024376D01*
X034637Y024312D01*
X034573Y024229D01*
X034533Y024131D01*
X034519Y024027D01*
X034533Y023922D01*
X034573Y023825D01*
X034637Y023742D01*
X034721Y023677D01*
X034818Y023637D01*
X034922Y023623D01*
X035027Y023637D01*
X035124Y023677D01*
X035208Y023742D01*
X035272Y023825D01*
X035312Y023922D01*
X035326Y024027D01*
X035312Y024131D01*
X035272Y024229D01*
X035208Y024312D01*
X035124Y024376D01*
X035027Y024417D01*
X034922Y024430D01*
D02*
G37*
G36*
X037872Y023977D02*
X037526D01*
X037533Y023922D01*
X037573Y023825D01*
X037637Y023742D01*
X037721Y023677D01*
X037818Y023637D01*
X037872Y023630D01*
Y023977D01*
D02*
G37*
%LPD*%
G36*
X030797Y021662D02*
Y020878D01*
X030261Y020342D01*
X029938D01*
X029919Y020388D01*
X030665Y021135D01*
X030701Y021188D01*
X030713Y021250D01*
X030701Y021312D01*
X030665Y021365D01*
X030586Y021444D01*
X030584Y021457D01*
X030592Y021506D01*
X030650Y021550D01*
X030706Y021623D01*
X030719Y021656D01*
X030781Y021674D01*
X030797Y021662D01*
D02*
G37*
G36*
X030223Y021494D02*
X030237Y021489D01*
Y021400D01*
X030249Y021338D01*
X030285Y021285D01*
X030319Y021250D01*
X029631Y020562D01*
X027350D01*
X027328Y020607D01*
X027347Y020633D01*
X027382Y020718D01*
X027385Y020737D01*
X029600D01*
X029662Y020749D01*
X029715Y020785D01*
X030065Y021135D01*
X030101Y021188D01*
X030113Y021250D01*
Y021495D01*
X030117Y021501D01*
X030119Y021511D01*
X030175Y021532D01*
X030223Y021494D01*
D02*
G37*
D18*
X028237Y021400D02*
D03*
X029063D02*
D03*
X030563Y025150D02*
D03*
X029737D02*
D03*
X029613Y022600D02*
D03*
X028787D02*
D03*
D19*
X034860Y017200D02*
Y018850D01*
X034750Y017090D02*
X034860Y017200D01*
X023950Y017090D02*
X034750D01*
X023840Y017200D02*
X023950Y017090D01*
X023840Y017200D02*
Y017750D01*
X037580D02*
Y021480D01*
X036410Y022650D02*
X037580Y021480D01*
X034900Y022650D02*
X036410D01*
X028348Y023360D02*
X028590Y023602D01*
Y024558D01*
X027828Y025320D02*
X028590Y024558D01*
X023470Y025320D02*
X027828D01*
X023000Y024850D02*
X023470Y025320D01*
X024850Y021920D02*
X024940Y022010D01*
X037040Y018850D02*
Y019010D01*
X024930Y017750D02*
Y019650D01*
X036400D02*
X037040Y019010D01*
X024930Y019650D02*
X036400D01*
X032250Y025300D02*
X034650D01*
X037000Y022950D01*
Y022550D02*
Y022950D01*
Y022550D02*
X037700Y021850D01*
X038700D01*
X038750Y021800D01*
X023800Y022550D02*
X024700Y023450D01*
X028900Y025400D02*
X028950Y025450D01*
X029150Y025150D02*
X029737D01*
X028900Y025400D02*
X029150Y025150D01*
X030396Y022546D02*
Y023230D01*
X028787Y022600D02*
X029100Y022913D01*
Y023950D01*
X022800D02*
X023250Y023500D01*
X021491Y023950D02*
X022800D01*
X021000Y024441D02*
X021491Y023950D01*
X021000Y024441D02*
Y024850D01*
X024390Y018850D02*
Y020450D01*
X025500Y023450D02*
Y023900D01*
X024700Y023450D02*
X025500D01*
X025000Y024850D02*
X025250D01*
X028200Y021900D01*
X031450Y022400D02*
X032550Y021300D01*
X031450Y022400D02*
Y025200D01*
X029063Y021400D02*
X029413Y021750D01*
X029700D01*
X029550Y021900D02*
X029700Y021750D01*
X028200Y021900D02*
X029550D01*
X024390Y020450D02*
X026009D01*
X029967Y022117D02*
X030396Y022546D01*
X029967Y021563D02*
Y022117D01*
X029950Y021547D02*
X029967Y021563D01*
X029950Y021250D02*
Y021547D01*
X029600Y020900D02*
X029950Y021250D01*
X030960Y020810D02*
Y021770D01*
X030820Y021910D02*
X030960Y021770D01*
X030820Y021910D02*
Y023660D01*
X030400Y021400D02*
X030550Y021250D01*
X030400Y021400D02*
Y021800D01*
X027200Y020900D02*
X029600D01*
X027109Y020809D02*
X027200Y020900D01*
X027041Y020809D02*
X027109D01*
X026280Y020179D02*
X030329D01*
X026371Y020399D02*
X029699D01*
X024850Y021920D02*
X026371Y020399D01*
X029699D02*
X030550Y021250D01*
X026009Y020450D02*
X026280Y020179D01*
X030329D02*
X030960Y020810D01*
D20*
X017100Y016750D02*
Y026050D01*
Y016750D02*
X042150D01*
Y026050D01*
X017100D02*
X042150D01*
D21*
X020000Y024850D02*
D03*
D22*
X021000D02*
D03*
X022000D02*
D03*
X023000D02*
D03*
X024000D02*
D03*
X025000D02*
D03*
X026000D02*
D03*
X027000D02*
D03*
D23*
X037922Y024027D02*
D03*
X034922D02*
D03*
X037900Y022650D02*
D03*
X034900D02*
D03*
D24*
X024930Y017750D02*
D03*
X022750D02*
D03*
X025480Y018850D02*
D03*
X022210D02*
D03*
X021660Y017750D02*
D03*
X023300Y018850D02*
D03*
X024390D02*
D03*
X023840Y017750D02*
D03*
X037580D02*
D03*
X035400D02*
D03*
X038130Y018850D02*
D03*
X034860D02*
D03*
X034310Y017750D02*
D03*
X035950Y018850D02*
D03*
X037040D02*
D03*
X036490Y017750D02*
D03*
D25*
X018370Y018300D02*
D03*
X028230D02*
D03*
X031020D02*
D03*
X040880D02*
D03*
D26*
X021120Y018850D02*
D03*
X033770D02*
D03*
D27*
X018000Y024700D02*
D03*
X041000D02*
D03*
D28*
X028348Y023360D02*
D03*
X030820Y023660D02*
D03*
X030396Y023230D02*
D03*
X024850Y021920D02*
D03*
X031450Y025200D02*
D03*
X032550Y021300D02*
D03*
X032250Y025300D02*
D03*
X038750Y021800D02*
D03*
X023800Y022550D02*
D03*
X028950Y025450D02*
D03*
X029100Y023950D02*
D03*
X023250Y023500D02*
D03*
X025850Y022250D02*
D03*
X025500Y023900D02*
D03*
X029557Y021750D02*
D03*
X030400Y021800D02*
D03*
X027041Y020809D02*
D03*
M02*
